<svg width="1893" height="1024" viewBox="0 0 1893 1024" fill="none" xmlns="http://www.w3.org/2000/svg">
<g clip-path="url(#clip0_2_25)">
<rect width="1893" height="1024" rx="50" fill="#111827"/>
<path d="M1892.59 0V1024H1273.59C1273.59 1024 1076.09 206 1319.59 476C1563.09 746 1892.59 0 1892.59 0Z" fill="#EE3131"/>
<rect x="1646.27" y="700.041" width="55" height="58" transform="rotate(25.9924 1646.27 700.041)" fill="#0E60FF"/>
<rect x="1630.9" y="593.281" width="93" height="98" rx="46.5" transform="rotate(10.9924 1630.9 593.281)" fill="#FFE9E9"/>
<path d="M1381.62 881.058C1390.77 898.029 1410.17 905.314 1410.17 905.314C1410.17 905.314 1414.75 885.084 1405.61 868.114C1396.46 851.143 1377.06 843.858 1377.06 843.858C1377.06 843.858 1372.48 864.088 1381.62 881.058Z" fill="#201F30"/>
<path d="M1387.91 875.475C1404.41 885.415 1410.77 905.157 1410.77 905.157C1410.77 905.157 1390.37 908.785 1373.86 898.845C1357.36 888.906 1351 869.163 1351 869.163C1351 869.163 1371.4 865.536 1387.91 875.475Z" fill="#FFE9E9"/>
<path d="M1634.7 879.545L1463.73 846.336L1463.97 845.105L1633.71 878.076L1645.31 818.361L1489.94 788.182L1485.45 770.976L1486.66 770.659L1490.95 787.1L1646.78 817.368L1634.7 879.545Z" fill="#FAFAFC"/>
<path d="M1480.62 880.921C1487.76 882.306 1494.66 877.642 1496.05 870.502C1497.44 863.362 1492.78 856.451 1485.65 855.065C1478.51 853.68 1471.61 858.344 1470.22 865.484C1468.83 872.624 1473.49 879.535 1480.62 880.921Z" fill="#FAFAFC"/>
<path d="M1607.93 905.649C1615.06 907.035 1621.97 902.37 1623.36 895.23C1624.74 888.09 1620.09 881.179 1612.95 879.793C1605.82 878.408 1598.91 883.073 1597.53 890.213C1596.14 897.352 1600.8 904.264 1607.93 905.649Z" fill="#FAFAFC"/>
<path d="M1812.28 655.308C1816.7 656.166 1820.97 653.278 1821.83 648.858C1822.69 644.438 1819.8 640.16 1815.39 639.302C1810.97 638.444 1806.7 641.332 1805.84 645.752C1804.98 650.172 1807.86 654.45 1812.28 655.308Z" fill="#FAFAFC"/>
<path d="M1668.77 801.836L1476.6 764.508L1461.44 620.38L1738.02 674.103L1737.61 674.855L1668.77 801.836ZM1477.75 763.454L1668.11 800.43L1736.1 675.009L1462.87 621.934L1477.75 763.454Z" fill="#FAFAFC"/>
<path d="M1604.66 761.722L1499.75 759.95L1478.32 684.577L1629.3 687.128L1629.15 687.567L1604.66 761.722Z" fill="#00FFC2"/>
<path d="M1743.83 662.618L1742.7 662.071L1756.76 633.025L1803.98 642.196L1803.74 643.428L1757.47 634.441L1743.83 662.618Z" fill="#FAFAFC"/>
<path d="M1716.19 712.665L1466.87 664.237L1466.63 665.468L1715.95 713.896L1716.19 712.665Z" fill="#FAFAFC"/>
<path d="M1693.1 755.252L1471.92 712.29L1471.68 713.522L1692.86 756.483L1693.1 755.252Z" fill="#FAFAFC"/>
<path d="M1600.22 647.976L1598.99 647.737L1572.81 782.557L1574.04 782.796L1600.22 647.976Z" fill="#FAFAFC"/>
<path d="M1655.3 658.635L1620.28 791.736L1621.5 792.055L1656.51 658.954L1655.3 658.635Z" fill="#FAFAFC"/>
<path d="M1543.96 637.006L1542.71 636.847L1525.3 773.372L1526.55 773.53L1543.96 637.006Z" fill="#FAFAFC"/>
</g>
<defs>
<clipPath id="clip0_2_25">
<rect width="1893" height="1024" rx="50" fill="white"/>
</clipPath>
</defs>
</svg>
